# xmcd CD database file
# Copyright (C) 1993-1998 Ti Kan
#
# Track frame offsets:
#  150
#  11777
#  22020
#  33845
#  43460
#  54690
#  65875
#  77437
#  90432
#  101587
#  112560
#  124142
#  135992
#  146977
#  156637
#  167855
#  177360
#  188047
#  198867
#  209927
#  220185
#  230197
#  241275
#  252600
#  263665
#  275205
#  286770
#  299460
#  310237
#
# Disc length: 4271 seconds
#
# Revision: 1
# Processed by: cddbd v1.4b41PL1 Copyright (c) Steve Scherf et al.
# Submitted via: CDWizzard Release:4.35
#
DISCID=c510ad1d
DTITLE=Varetta Dillar - Got You On My Mind
DYEAR=1900
DGENRE=
TTITLE0=The Square Dance Rock
TTITLE1=If (You Want To Be My Baby)
TTITLE2=Got You On My Mind
TTITLE3=Mama Don't Want (What Papa Don't Want)
TTITLE4=One More Time
TTITLE5=I'm Gonna Tell My Daddy On You
TTITLE6=Skinny Jimmy
TTITLE7=Darling, Listen To The Words Of This Song
TTITLE8=Leave A Happy Fool Alone
TTITLE9=See See Rider Blues
TTITLE10=That's Why I Cry
TTITLE11=I Got A Lot Of Love
TTITLE12=Undecided
TTITLE13=Pray For Me Mother
TTITLE14=I Miss You Jimmy (Tribute To James Dean)
TTITLE15=Star Of Fortune
TTITLE16=The Rules Of Love
TTITLE17=Falling
TTITLE18=Old Fashioned
TTITLE19=Honey
TTITLE20=What'll I Do
TTITLE21=Just Multiply
TTITLE22=Give Me The Right
TTITLE23=Time Was
TTITLE24=I Can't Help Myself
TTITLE25=That Old Feeling
TTITLE26=Cherry Blossom
TTITLE27=Pennies From Heaven
TTITLE28=The Night Is Never Long Enough
EXTD=
EXTT0=
EXTT1=
EXTT2=
EXTT3=
EXTT4=
EXTT5=
EXTT6=
EXTT7=
EXTT8=
EXTT9=
EXTT10=
EXTT11=
EXTT12=
EXTT13=
EXTT14=
EXTT15=
EXTT16=
EXTT17=
EXTT18=
EXTT19=
EXTT20=
EXTT21=
EXTT22=
EXTT23=
EXTT24=
EXTT25=
EXTT26=
EXTT27=
EXTT28=
PLAYORDER=
